<?xml version="1.0" encoding="UTF-8" standalone="no"?>
<!-- Generator: Adobe Illustrator 27.7.0, SVG Export Plug-In . SVG Version: 6.00 Build 0)  -->

<svg
   version="1.1"
   id="Layer_1"
   x="0px"
   y="0px"
   viewBox="0 0 149.9 49"
   style="enable-background:new 0 0 149.9 49;"
   xml:space="preserve"
   sodipodi:docname="action-for-children.svg"
   inkscape:version="1.4.2 (ebf0e940d0, 2025-05-08)"
   xmlns:inkscape="http://www.inkscape.org/namespaces/inkscape"
   xmlns:sodipodi="http://sodipodi.sourceforge.net/DTD/sodipodi-0.dtd"
   xmlns="http://www.w3.org/2000/svg"
   xmlns:svg="http://www.w3.org/2000/svg"><defs
   id="defs30" /><sodipodi:namedview
   id="namedview30"
   pagecolor="#ffffff"
   bordercolor="#000000"
   borderopacity="0.25"
   inkscape:showpageshadow="2"
   inkscape:pageopacity="0.0"
   inkscape:pagecheckerboard="0"
   inkscape:deskcolor="#9b9b9b"
   showborder="false"
   inkscape:zoom="5.920614"
   inkscape:cx="52.528336"
   inkscape:cy="54.555153"
   inkscape:window-width="1920"
   inkscape:window-height="1015"
   inkscape:window-x="0"
   inkscape:window-y="0"
   inkscape:window-maximized="1"
   inkscape:current-layer="g27" />
<style
   type="text/css"
   id="style1">
	.st0{fill:#FFFFFF;}
	.st1{fill:url(#SVGID_1_);}
</style>
<g
   id="g28">
	<g
   id="g27">
		<path
   class="st0"
   d="M6.2,1.3h2.2L12.9,13h-2.3l-0.9-2.4H4.9L3.9,13H1.6L6.2,1.3 M7.3,4.4l-1.6,4h3.2L7.3,4.4z"
   id="path1"
   style="stroke:#000000;stroke-opacity:0.21374601;fill:#3d3d3d;fill-opacity:1" />
		<path
   class="st0"
   d="M22.8,6.1l-1.8,1c-0.3-0.4-0.7-0.6-1-0.7c-0.3-0.1-0.7-0.2-1.2-0.2c-0.8,0-1.5,0.2-2,0.7    c-0.5,0.5-0.7,1.1-0.7,1.9c0,0.7,0.2,1.3,0.7,1.8c0.5,0.5,1.1,0.7,1.9,0.7c1,0,1.7-0.3,2.3-1l1.7,1.2c-0.9,1.2-2.2,1.8-3.9,1.8    c-1.5,0-2.7-0.4-3.6-1.3c-0.9-0.9-1.3-2-1.3-3.2c0-0.8,0.2-1.6,0.6-2.3c0.4-0.7,1-1.3,1.8-1.7c0.7-0.4,1.6-0.6,2.5-0.6    c0.9,0,1.6,0.2,2.3,0.5C21.8,5,22.4,5.4,22.8,6.1"
   id="path2"
   style="stroke:#000000;stroke-opacity:0.21374601;fill:#3d3d3d;fill-opacity:1" />
		<polyline
   class="st0"
   points="25,1.2 27.2,1.2 27.2,4.3 28.5,4.3 28.5,6.2 27.2,6.2 27.2,13 25,13 25,6.2 23.9,6.2 23.9,4.3     25,4.3 25,1.2   "
   id="polyline2"
   style="stroke:#000000;stroke-opacity:0.21374601;fill:#3d3d3d;fill-opacity:1" />
		<path
   class="st0"
   d="M31.1,0.8c0.4,0,0.7,0.1,1,0.4c0.3,0.3,0.4,0.6,0.4,1c0,0.4-0.1,0.7-0.4,1c-0.3,0.3-0.6,0.4-1,0.4    c-0.4,0-0.7-0.1-1-0.4c-0.3-0.3-0.4-0.6-0.4-1c0-0.4,0.1-0.7,0.4-1C30.4,0.9,30.8,0.8,31.1,0.8 M30.1,4.3h2.2V13h-2.2V4.3z"
   id="path3"
   style="stroke:#000000;stroke-opacity:0.21374601;fill:#3d3d3d;fill-opacity:1" />
		<path
   class="st0"
   d="M38.2,4.1c0.8,0,1.6,0.2,2.3,0.6c0.7,0.4,1.3,1,1.7,1.7c0.4,0.7,0.6,1.5,0.6,2.3c0,0.8-0.2,1.6-0.6,2.3    c-0.4,0.7-1,1.3-1.7,1.7c-0.7,0.4-1.5,0.6-2.3,0.6c-1.2,0-2.3-0.4-3.2-1.3c-0.9-0.9-1.3-2-1.3-3.2c0-1.4,0.5-2.5,1.5-3.4    C36.1,4.5,37.1,4.1,38.2,4.1 M38.3,6.1c-0.7,0-1.2,0.2-1.7,0.7c-0.5,0.5-0.7,1.1-0.7,1.8c0,0.8,0.2,1.4,0.7,1.8    c0.4,0.5,1,0.7,1.7,0.7c0.7,0,1.2-0.2,1.7-0.7c0.5-0.5,0.7-1.1,0.7-1.8c0-0.7-0.2-1.3-0.7-1.8C39.5,6.4,39,6.1,38.3,6.1z"
   id="path4"
   style="stroke:#000000;stroke-opacity:0.21374601;fill:#3d3d3d;fill-opacity:1" />
		<path
   class="st0"
   d="M44.6,4.3h2.2v0.9c0.5-0.4,0.9-0.7,1.3-0.9c0.4-0.2,0.8-0.2,1.2-0.2c0.9,0,1.6,0.3,2.2,0.9    c0.5,0.5,0.8,1.3,0.8,2.3V13h-2.1V9.2c0-1,0-1.7-0.1-2.1c-0.1-0.3-0.3-0.6-0.5-0.8c-0.2-0.2-0.5-0.3-0.9-0.3    c-0.4,0-0.8,0.1-1.1,0.4c-0.3,0.3-0.5,0.7-0.7,1.2c-0.1,0.3-0.1,0.9-0.1,1.7V13h-2.2V4.3"
   id="path5"
   style="stroke:#000000;stroke-opacity:0.21374601;fill:#3d3d3d;fill-opacity:1" />
		<path
   class="st0"
   d="M57.8,4.3h0.8c0-1.1,0-1.8,0.1-2c0.1-0.5,0.3-0.9,0.6-1.1c0.3-0.3,0.8-0.4,1.4-0.4c0.4,0,1,0.1,1.5,0.3v1.6    c-0.3-0.1-0.6-0.1-0.8-0.1c-0.3,0-0.4,0.1-0.6,0.2c-0.1,0.1-0.1,0.2-0.1,0.5l0,1.1h1.4v1.8h-1.4V13h-2.2V6.2h-0.8V4.3"
   id="path6"
   style="stroke:#000000;stroke-opacity:0.21374601;fill:#3d3d3d;fill-opacity:1" />
		<path
   class="st0"
   d="M67.5,4.1c0.8,0,1.6,0.2,2.3,0.6c0.7,0.4,1.3,1,1.7,1.7c0.4,0.7,0.6,1.5,0.6,2.3c0,0.8-0.2,1.6-0.6,2.3    c-0.4,0.7-1,1.3-1.7,1.7c-0.7,0.4-1.5,0.6-2.3,0.6c-1.2,0-2.3-0.4-3.2-1.3C63.4,11,63,9.9,63,8.6c0-1.4,0.5-2.5,1.5-3.4    C65.3,4.5,66.3,4.1,67.5,4.1 M67.5,6.1c-0.7,0-1.2,0.2-1.7,0.7c-0.4,0.5-0.7,1.1-0.7,1.8c0,0.8,0.2,1.4,0.7,1.8    c0.4,0.5,1,0.7,1.7,0.7c0.7,0,1.2-0.2,1.7-0.7c0.5-0.5,0.7-1.1,0.7-1.8c0-0.7-0.2-1.3-0.7-1.8C68.8,6.4,68.2,6.1,67.5,6.1z"
   id="path7"
   style="stroke:#000000;stroke-opacity:0.21374601;fill:#3d3d3d;fill-opacity:1" />
		<path
   class="st0"
   d="M73.3,4.3h1.9v1.1c0.2-0.4,0.5-0.8,0.8-1c0.3-0.2,0.7-0.3,1.1-0.3c0.3,0,0.6,0.1,0.9,0.2l-0.7,1.9    C77,6.1,76.8,6,76.6,6c-0.3,0-0.6,0.2-0.8,0.6c-0.2,0.4-0.3,1.2-0.3,2.4l0,0.4V13h-2.2V4.3"
   id="path8"
   style="stroke:#000000;stroke-opacity:0.21374601;fill:#3d3d3d;fill-opacity:1" />
		<path
   class="st0"
   d="M94.5,3.3l-1.5,1.5c-1.1-1.1-2.2-1.7-3.6-1.7c-1.1,0-2,0.4-2.8,1.1C85.8,5,85.4,6,85.4,7.1    c0,0.8,0.2,1.5,0.5,2.1c0.3,0.6,0.8,1.1,1.4,1.4c0.6,0.3,1.3,0.5,2.1,0.5c0.6,0,1.2-0.1,1.8-0.4c0.5-0.2,1.1-0.7,1.8-1.3l1.5,1.6    c-0.9,0.8-1.7,1.4-2.4,1.8c-0.8,0.3-1.6,0.5-2.6,0.5c-1.8,0-3.3-0.6-4.5-1.7c-1.2-1.1-1.7-2.6-1.7-4.4c0-1.2,0.3-2.2,0.8-3.1    c0.5-0.9,1.3-1.6,2.3-2.2c1-0.6,2-0.8,3.2-0.8c1,0,1.9,0.2,2.8,0.6C93.1,2,93.9,2.6,94.5,3.3"
   id="path9"
   style="stroke:#000000;stroke-opacity:0.21374601;fill:#3d3d3d;fill-opacity:1" />
		<path
   class="st0"
   d="M96.2,1h2.2v4.2c0.4-0.4,0.8-0.6,1.3-0.8c0.4-0.2,0.9-0.3,1.3-0.3c0.9,0,1.6,0.3,2.2,0.9    c0.5,0.5,0.8,1.3,0.8,2.3V13h-2.1V9.2c0-1,0-1.7-0.1-2c-0.1-0.4-0.3-0.6-0.5-0.8c-0.2-0.2-0.5-0.3-0.9-0.3c-0.4,0-0.8,0.1-1.1,0.4    c-0.3,0.3-0.5,0.7-0.7,1.2c-0.1,0.3-0.1,0.9-0.1,1.8V13h-2.2V1"
   id="path10"
   style="stroke:#000000;stroke-opacity:0.21374601;fill:#3d3d3d;fill-opacity:1" />
		<path
   class="st0"
   d="M106.8,0.8c0.4,0,0.7,0.1,1,0.4c0.3,0.3,0.4,0.6,0.4,1c0,0.4-0.1,0.7-0.4,1c-0.3,0.3-0.6,0.4-1,0.4    c-0.4,0-0.7-0.1-1-0.4c-0.3-0.3-0.4-0.6-0.4-1c0-0.4,0.1-0.7,0.4-1C106.1,0.9,106.4,0.8,106.8,0.8 M105.7,4.3h2.2V13h-2.2V4.3z"
   id="path11"
   style="stroke:#000000;stroke-opacity:0.21374601;fill:#3d3d3d;fill-opacity:1" />
		<rect
   x="109.6"
   y="1"
   class="st0"
   width="2.2"
   height="12"
   id="rect11"
   style="stroke:#000000;stroke-opacity:0.21374601;fill:#3d3d3d;fill-opacity:1" />
		<path
   class="st0"
   d="M120.1,1h2.2v12h-2.2V12c-0.4,0.4-0.8,0.7-1.3,0.9c-0.4,0.2-0.9,0.3-1.4,0.3c-1.1,0-2.1-0.4-2.9-1.3    c-0.8-0.9-1.2-1.9-1.2-3.2c0-1.3,0.4-2.4,1.2-3.3c0.8-0.9,1.7-1.3,2.9-1.3c0.5,0,1,0.1,1.5,0.3c0.5,0.2,0.9,0.5,1.3,0.9V1     M117.8,6.1c-0.7,0-1.2,0.2-1.7,0.7c-0.4,0.5-0.7,1.1-0.7,1.8c0,0.7,0.2,1.4,0.7,1.8c0.4,0.5,1,0.7,1.7,0.7c0.7,0,1.2-0.2,1.7-0.7    c0.4-0.5,0.7-1.1,0.7-1.9c0-0.8-0.2-1.4-0.7-1.8C119.1,6.3,118.5,6.1,117.8,6.1z"
   id="path12"
   style="stroke:#000000;stroke-opacity:0.21374601;fill:#3d3d3d;fill-opacity:1" />
		<path
   class="st0"
   d="M124,4.3h1.9v1.1c0.2-0.4,0.5-0.8,0.8-1c0.3-0.2,0.7-0.3,1.1-0.3c0.3,0,0.6,0.1,0.9,0.2l-0.7,1.9    c-0.3-0.1-0.5-0.2-0.6-0.2c-0.3,0-0.6,0.2-0.8,0.6c-0.2,0.4-0.3,1.2-0.3,2.4l0,0.4V13H124V4.3"
   id="path13"
   style="stroke:#000000;stroke-opacity:0.21374601;fill:#3d3d3d;fill-opacity:1" />
		<path
   class="st0"
   d="M138.3,9.3h-7c0.1,0.6,0.4,1.1,0.8,1.5c0.4,0.4,1,0.5,1.7,0.5c0.8,0,1.5-0.3,2.1-0.9l1.8,0.9    c-0.5,0.6-1,1.1-1.6,1.4c-0.6,0.3-1.4,0.5-2.3,0.5c-1.3,0-2.5-0.4-3.3-1.3c-0.9-0.9-1.3-1.9-1.3-3.2c0-1.3,0.4-2.4,1.3-3.3    c0.8-0.9,1.9-1.3,3.2-1.3c1.4,0,2.5,0.4,3.3,1.3c0.9,0.9,1.3,2,1.3,3.4L138.3,9.3 M136.1,7.6c-0.1-0.5-0.4-0.9-0.9-1.2    c-0.4-0.3-0.9-0.4-1.5-0.4c-0.6,0-1.1,0.2-1.6,0.5c-0.3,0.2-0.6,0.6-0.8,1.1H136.1z"
   id="path14"
   style="stroke:#000000;stroke-opacity:0.21374601;fill:#3d3d3d;fill-opacity:1" />
		<path
   class="st0"
   d="M140.1,4.3h2.2v0.9c0.5-0.4,0.9-0.7,1.3-0.9c0.4-0.2,0.8-0.2,1.2-0.2c0.9,0,1.6,0.3,2.2,0.9    c0.5,0.5,0.8,1.3,0.8,2.3V13h-2.1V9.2c0-1,0-1.7-0.1-2.1c-0.1-0.3-0.3-0.6-0.5-0.8c-0.2-0.2-0.5-0.3-0.9-0.3    c-0.4,0-0.8,0.1-1.1,0.4c-0.3,0.3-0.5,0.7-0.7,1.2c-0.1,0.3-0.1,0.9-0.1,1.7V13h-2.2V4.3"
   id="path15"
   style="stroke:#000000;stroke-opacity:0.21374601;fill:#3d3d3d;fill-opacity:1" />
		<path
   class="st0"
   d="M135,34c0.6,1.1-0.1,2.2,0,3.3c0,0.3,0.4,0.6,0.4,0.9c-0.2,1.8,0.7,3.5,0.3,5.2c-0.3,1.3-1.1,2.3-1.3,3.7    c-0.1,0.5-0.3,1.3,0.1,1.4c1.6,0.3,3.3,0.2,5-0.1c0.4-0.1,0.3-0.7,0.1-1.1c-0.3-0.6-0.9-0.9-1.5-1c-0.1,0-0.4-0.3-0.3-0.6    c0.3-0.9,0.9-1.6,1.1-2.5c0.3-1.1-0.1-2.3,0.4-3.4c0.4,0.2,0.8,0.4,1.1,0.6c1.6,1.2,2.9,2.5,4.3,3.9c0.4,0.4,0.8-0.1,1.3-0.2    c0.3-0.1,0.7,0.3,0.9,0.5c0.5,0.5,1.3-0.2,1.5-0.7c0.2-0.5,1.2-1.4,1.6-2.6c0.4-1.2-1-1.2-1.6-0.7c-0.3,0.4-0.5,1.1-1.2,0.8    c-2-0.9-4-2.2-4.6-4.2c-0.2-0.6-0.8-1.2-0.7-1.8c0.2-1.2,1.7-0.9,2.4-1.6c0.7-0.8,1.2-1.7,1.8-2.6c0.3-0.5,1.3-0.4,1.8-0.8    c0.4-0.3,0.1-1.2-0.5-1.5c-0.2-0.1-0.4-0.1-0.6,0c-1.2,0.6-1.7,1.9-2.9,2.5c-1.6,0.8-4.1,1.7-4.9-0.2c-0.2-0.4,0.9-0.7,1.3-1.2    c0.7-0.9-0.2-1.8-0.4-2.7c-0.1-0.5,0.6-0.9,0.4-1.4c-1-1.7-3.5-1.4-5.2-0.4c-0.8,0.5-1.2,1.1-1.4,1.9c-0.2,0.5-0.2,1.2,0,1.7    c0.4,1,1.4,1.4,2.4,1.9c0.5,0.3,0,1-0.3,1.2L135,34"
   id="path16"
   style="stroke:#000000;stroke-opacity:0.21374601;fill:#3d3d3d;fill-opacity:1" />
		<path
   class="st0"
   d="M123.8,33.4c0,0.1,0,0.1,0,0.2c-0.1,2.1-1.1,4.1-2.5,5.7c0.7,1.3,2.7,0.5,3.9,0.9c0.4,0.1,0.3,0.7,0.3,1.1    c0.1,1.5-0.7,2.8-0.6,4.3c0,0.4-0.4,0.8-0.5,1.2c-0.1,0.3-0.2,0.9,0.1,1c1.6,0.5,3.6,1.2,5.1,0c0.1-0.1,0-0.5-0.3-0.7    c-0.8-0.4-1.9-0.5-2-1.4c0-1.4,0.2-2.9,0.8-4.1c0.3-0.6,0.6-1.2,1-1.6c0.8-0.8,2.4-0.7,2.7-1.7c0.3-0.9-1.5-1.8-1.1-2.3    c0.9-1,2.6-1.1,4-1.8c0,0,0.1,0,0.1-0.1l0.7-1.6c-1.2,1.2-3.2,1.2-4.8,0.8c-1.5-0.3-3.2-2-2.6-3.3c0.3-0.6,1.6-0.8,2-1.7    c0.3-0.7-0.5-1.4-0.4-2.1c0.2-0.7,0.8-1.2,0.4-2c-0.4-0.8-1.2-1.4-2-1c-0.9,0.4-1.9,0.5-2.8,0.9c-0.2,0.1-0.2,0.4-0.5,0.5    c-0.5,0.1-0.8-0.8-1.2-0.4c-1.4,1.1-1.3,3.1-2.4,4.4c1.2,0.6,2.1-0.4,2.9-1c0.3,1,2.1,1.9,1,2.8L123.8,33.4"
   id="path17"
   style="stroke:#000000;stroke-opacity:0.21374601;fill:#3d3d3d;fill-opacity:1" />
		<path
   class="st0"
   d="M110.2,32c0.1,0.1,0.1,0.2,0.1,0.3c-0.1,0.8-0.4,1.6-0.2,2.4c0,0.2,0.3,0.3,0.3,0.5c0,0.8,0.2,1.7,0.2,2.4    c0,2.6-0.7,5.1-1.6,7.6c-0.3,0.9-1.1,2.4-0.2,2.6c1.6,0.5,4.4,1.5,5.1-0.4c0.4-0.9-1.7-0.6-1.9-1.3c-0.5-1.5,1.1-3,1.3-4.7    c0-0.1,0.4-0.4,0.5-0.2c1.2,2.1,1,4.9,2.9,6.5c1.4-0.5,3.4-0.3,4-1.6c0.7-1.6-2.2-0.3-2.7-1.3c-1.4-2.9-2.7-6.1-2.5-9.2    c0-0.5,0-1.9,0.7-2c0.7-0.1,1.4,0.9,2.2,1c1.8,0.2,3-1.5,4.6-2c0.3-0.1,0.8,0.3,0.9,0.7l1.5-3.2c-1.8,1.3-3.7,2.5-6,2.3    c-0.5-0.1-1.1-0.4-1.4-1c-0.7-1.6-1.9-3-1.8-4.8c0-0.2,0.1-0.7,0.4-0.6c1.2,0.3,1.7-0.7,1.9-1.5c0.2-0.7-0.5-1.5-0.3-2.3    c0.1-0.2,0.4,0,0.4-0.4c0.1-0.8-0.3-1.6-1.1-1.8c-1.1-0.3-2.2-0.1-3.4-0.1c-0.4,0-0.8,0.1-1,0.4c-0.6,0.9-1.2,1.6-1.7,2.5    c-0.2,0.5-0.6,1.2,0,1.6c0.4,0.3,1-0.3,1.4,0.1c0.8,0.7,0.8,1.5,0.6,2.4c-0.2,1-0.9,1.7-1.7,2.3L110.2,32"
   id="path18"
   style="stroke:#000000;stroke-opacity:0.21374601;fill:#3d3d3d;fill-opacity:1" />
		<path
   class="st0"
   d="M98.1,31.5c0.1,0.1,0.1,0.2,0.1,0.3c-0.1,1.6-1.3,3-1.1,4.7c0,0.2,0.6,0.1,0.8,0.3c0.5,0.6,0.3,1.5,0.5,2.2    c0.3,0.9,1.7,1.3,1.6,1.8c-0.3,1.8-2.8,3.2-2.4,5c0.2,1-0.6,2.5,0.3,2.8c1.7,0.6,3.9,0.8,5.7-0.1c0.1,0,0.1-0.5-0.1-0.7    c-0.4-0.5-1.6-0.5-1.4-1.1c0.5-1.8,2.3-3.2,2.4-5.2c0.1-1.3-0.8-2.6-0.8-4c0-1,0.2-2,0-3c2.2,0.3,3.7-1.4,5.5-2.5    c0.3-0.2,0.7-0.1,0.9,0.1l1.6-2.7c-0.5,0.3-1.3,0.1-1.8,0.5c-1.8,1.5-4,1.9-6.1,1.7c-0.8-0.1-2.2-0.1-2-1c0.2-0.8,1.4-0.6,1.7-1.6    c0.2-0.7-0.5-1.3-0.5-1.9c0-0.5,0.3-0.9,0.9-1.3c0.3-0.2-0.4-0.8-0.5-1.3c0.2,0,0.3-0.2,0.2-0.3c-0.3-0.6-1.1-0.6-1.6-0.8    c-0.9-0.4-1.8,0.4-2.8,0.5c-2.3,0.1-3.1,2.8-3.2,5c0.4-0.1,0.4,0.4,0.6,0.4c0.7,0,1.2-0.6,1.6,0.3L98.1,31.5"
   id="path19"
   style="stroke:#000000;stroke-opacity:0.21374601;fill:#3d3d3d;fill-opacity:1" />
		<path
   class="st0"
   d="M82.8,30.8c0.1,0.1,0.1,0.2,0.1,0.3c-0.8,1.6-1,3.4-2.1,4.9c0.5,2.7,2.1,5.1,1.6,7.9    c-0.2,1.4-1.1,2.6-0.5,3.9c0.1,0.2,0.4,0.4,0.7,0.4c1.9,0.2,3.7,1.1,5.6,0.3c0.3-0.1,0.5-0.5,0.4-0.8c-0.2-0.9-1.5-0.8-1.6-1.5    c-0.1-1.1,0.2-2.3,0.5-3.4c1.3,1.5,1.5,3.9,3.1,4.9c1.2,0.8,2.8-0.6,4.1-1.4c0.7-0.4,1.7-1.4,0.9-2.2c-0.6-0.6-1.8,0.1-1.9-0.3    c-0.8-2.7-2.2-4.8-3.3-7.2c-0.3-0.8-0.7-2.2,0-2.8c0.8-0.7,2.2,0.1,3.2-0.8c1.1-0.9,2.3-1.3,3.4-2c0.3-0.2,0.8,0,1,0.3l0.3-2    c-1.2,0.3-2.4,0.9-3.6,1.1c-1.9,0.2-3.9,0.2-5.5-0.7c-0.4-0.2-0.9-0.5-1.2-0.9c0.6-0.5,1.4-0.7,1.6-1.5c0.3-1.2-0.2-2.3-0.3-3.4    c-0.1-0.7-0.3-1.7-1.3-1.9c-1.4-0.2-2.8-0.2-4,0.5c-2.4,1.4-1.2,4.3,0.3,6.1c0.1,0.1,0.1,0.5-0.1,0.5L82.8,30.8"
   id="path20"
   style="stroke:#000000;stroke-opacity:0.21374601;fill:#3d3d3d;fill-opacity:1" />
		<path
   class="st0"
   d="M71,32.2c0.1-0.1,0.3,0.1,0.3,0.3c0,0.6,0,1.2,0,1.7c0.1,0.9,1.1,1.4,1.2,2.2c0.4,3.8-0.1,7.7-1.2,11.3    c0.3,0,0.2,0.3,0.4,0.3c1.1,0,1.9,0.3,2.9,0.5c1.1,0.2,2-0.2,3.1,0c0.4,0.1,0.9-0.2,1-0.5c0.2-1-1.2-1.1-1.7-1.6    c-1.3-1.1-0.6-2.9-0.4-4.4c0.2-1.1,0.6-2.3,0.2-3.4c-0.4-1.3-0.8-2.6-0.8-3.8c0-2-0.4-3.9-0.1-5.8c0.9,0.5,1.8,0.9,2.8,1.2    c0.3,0.1,0.8,0,1.1,0c0.9,0.1,1.8,0.1,2.7,0.3c0,0,0.2,0.1,0.3,0.2l1.4-1.6c-1.1,0.2-2.2,0.6-3.1,0.2c-1-0.4-2-0.5-2.9-1.1    c-1.2-0.8-2.3-1.8-2.7-3.2c-0.1-0.5-0.5-0.9-0.5-1.3c0-0.5,1.2-0.4,1.4-1.2c0.3-1.2-0.3-2.3,0-3.5c0-0.2-0.1-0.5-0.3-0.7    c-0.9-0.7-2-0.7-3-0.4c-1.3,0.5-2.5,2-1.9,3.5c0.3,0.6,0.8,1.2,1.6,1.4c0.2,0.1,0.2,0.5,0.1,0.7c-1.2,2-1.3,4.2-1.7,6.4L71,32.2"
   id="path21"
   style="stroke:#000000;stroke-opacity:0.21374601;fill:#3d3d3d;fill-opacity:1" />
		<path
   class="st0"
   d="M61.2,33.7c0.1,1.3-0.8,2.6-0.3,3.8c0.1,0.2,0.5,0.3,0.6,0.5c0.3,0.9,1.2,1.6,1,2.5C62,42.9,61.3,45,60,47.1    c-0.2,0.4-0.4,1,0,1.2c1.3,0.5,2.7,0.4,4,0.2c0.1,0,0.2-0.2,0.2-0.3c0.3-1-1.1-0.9-1-1.5c0.3-1.2,1.1-2.3,1.7-3.4    c1.5,1.2,2,4.1,4,3.8c1-0.1,2.6-1.4,2.1-2.9c-0.3-1-1.5,0.5-1.9,0.2c-1.4-1.1-2.2-2.8-2.7-4.4c-0.5-1.2-0.3-2.9,0.4-4    c0.2-0.3,1.1-0.6,1.7-1c1.1-0.7,1.4-2,2.4-2.8l0-1.9c-0.1,0.7-0.8,1.6-1.5,2.2c-1,0.8-2,1.4-3.2,1.5c-0.7,0.1-1-1-1.4-1.6    c1.4-0.2,1.3-1.6,1.5-2.7c0-0.1,0.5-0.4,0.6-0.6c0.5-1.2-0.6-2.2-1.6-2.7c-1.4-0.7-3-0.3-4.2,0.6c-1.6,1.1-1.1,3.6,0.7,4.6    c0.3,0.2-0.3,0.7-0.5,0.7L61.2,33.7"
   id="path22"
   style="stroke:#000000;stroke-opacity:0.21374601;fill:#3d3d3d;fill-opacity:1" />
		<path
   class="st0"
   d="M49.4,29.8c-0.4,1.7-1.6,3.2-1.8,4.9c0,0.3,0.3,0.7,0.6,0.9c1.3,1.3,1.3,3.3,1.6,5.1c0.2,0.9,0.1,2-0.4,2.7    c-0.5,0.8-1.1,1.5-1.4,2.4c0.4-0.1,0.4,0.4,0.7,0.5c0.5,0.4,0.2,1.1,0.3,1.7c1.9-0.3,4.5,1.1,5.8-0.7c0.3-0.5-1.3-0.8-1.3-1.5    c-0.1-3.1,1.9-6.1,0.4-9.2c-0.1-0.1,0.1-0.5,0.4-0.5c0.4,0,0.9-0.1,1.1-0.4c0.5-0.6,0.1-1.8,0.8-1.9c1.7-0.4,3.4-0.2,5.1-0.1    l0.3-1.4c-1.8,0.6-3.7-0.3-5.3-1.4c-0.8-0.5-1.7-1.2-1.7-2.4c0-0.4-0.8-0.4-0.6-0.8c0.3-0.7,1.5-0.6,1.9-1.4c0.5-1-0.1-1.9,0-2.9    c0-0.2,0.3-0.5,0.3-0.7c0.1-0.7-0.6-1-1.1-1.3c-1.5-0.9-3.1-0.5-4.4,0.7c-0.2,0.2-0.7,0-1,0.2c-0.8,0.4-1,1.6-2,1.8    c0.4,1.6,2,1.3,3,0.9c0.1,0.7,0.8,1.2,0.8,1.9c0,0.3-0.4,0.6-0.6,0.7L49.4,29.8"
   id="path23"
   style="stroke:#000000;stroke-opacity:0.21374601;fill:#3d3d3d;fill-opacity:1" />
		<path
   class="st0"
   d="M38.3,29.9c0.2-0.1,0.4,0.3,0.4,0.5c0.3,1.6-1.2,2.8-0.8,4.4c0.1,0.5,1,0.4,1.1,1.1c0.5,2.2,1.1,4.3,1.3,6.4    c0.1,1.4-2.2,2.2-1.8,3.8c0.2,0.9,1.3,1,2.1,1.5c0.1,0.1,0.2,0.3,0.3,0.5c0.2,0.4,0.8,0.2,1.1,0.2c1.3,0,3,0.2,3.8-0.7    c1.1-1.3-1.3-1.7-2.4-1.8c-0.4-2.3,1.9-4.1,1.3-6.4c-0.2-0.8-0.2-1.5-0.5-2.3c-0.3-0.8,0.5-1.4,0.8-2c0.6-1.2-0.6-2.3-0.7-3.6    c1.9-0.1,3.3-1.4,5.1-1.7l1.4-2.2c-1.7,1.1-3.6,1-5.5,1c-1.4,0-2.4-0.8-2.3-1.9c0.1-0.7,1.5-0.3,1.8-1.2c0.4-1.3,0-2.6-0.4-3.9    c-0.1-0.3,0.2-0.7,0.2-0.8c-0.1-1.3-1.6-1.5-2.8-1.5c-1.6,0-3.1,0.8-3.8,2.2c-0.8,1.6-0.1,3.4,1.6,4.2c0.3,0.2,0.3,0.5,0.2,0.8    c-0.7,0.5-1.8,1.6-1.8,2.3L38.3,29.9"
   id="path24"
   style="stroke:#000000;stroke-opacity:0.21374601;fill:#3d3d3d;fill-opacity:1" />
		<path
   class="st0"
   d="M26.6,31.3c0.5,0.7,0,1.5-0.1,2.3c-0.2,0.7-0.4,1.3-0.9,1.9c-0.6,0.6-1.4,1-1.6,1.9c-0.1,0.8-0.2,1.6,0.3,2.3    c0.4,0.6,1.2,0.7,1.5,1.3c0.2,0.5,0.1,1.1-0.2,1.4c-1.3,1.1-1.3,2.6-1.9,3.9c-0.2,0.4-0.3,1.2,0.2,1.4c0.9,0.3,2,0.3,3,0.3    c0.6,0,2-0.1,1.6-1.1c-0.3-0.8-1.8-0.4-1.8-1.2c0.1-1.2,1.3-2.1,2-3.2c0.3-0.5-0.1-1.2,0.2-1.6c0.4-0.5,1.4-0.4,1.8-0.1    c1.3,1,0.7,3,1.8,4.2c0.8,0.9,1.1,2,1.9,2.4c1.2,0.7,3.9-0.8,3.7-2.2c-0.1-1.2-2,0.1-2.4-0.2c-1-0.9-1.7-2.5-1.8-4.1    c0-0.2-0.1-0.7-0.5-1c0.7-0.7,1.6-1.1,1.7-2.1c0.1-1.9-2.4-2.9-2.3-4.4c0-0.4,0.6-0.4,1.3-0.6l-0.5-0.8c1.9-0.1,3.3-1.5,4.8-2.2    l-0.2-1.2c0,0.2-0.2,0.4-0.6,0.5c-0.4,0.1-2.9,0.5-3.3,0.8c-0.4,0.3-0.9,0.1-1.5,0.2c-0.1,0-0.2,0-0.3,0L31.6,29    c0.4-0.1,1.2-0.7,1.4-1.2c0.3-0.8-0.2-1.5-0.4-2.3c-0.1-0.5,0.5-1,0.4-1.5c-0.1-0.5-0.2-1.1-0.7-1.4c-0.4-0.2-0.8-0.4-1.3-0.3    c-1.5,0.3-2.9,0.5-4.1,1.5c-0.9,0.8-1.4,1.8-1.4,2.8c0,0.4,0,0.9,0.4,1.3c0.5,0.6,1.2,0.9,1.9,1.4c0.7,0.4-0.6,1.3-0.8,1.2    L26.6,31.3"
   id="path25"
   style="stroke:#000000;stroke-opacity:0.21374601;fill:#3d3d3d;fill-opacity:1" />
		<path
   class="st0"
   d="M14.1,31.6c0,0,0.1,0,0.1-0.1c0.3,1-0.1,2-0.1,3c-0.1,0.6-1,1-0.6,1.6c0.3,0.5,1,0.8,1.4,1    c0.4,0.2,0.3,2.8,0.2,4.2c0,0.8-1.1,1.4-1.4,2.3c-0.1,0.4-0.6,0.7-0.3,1.1c0.1,0.2,0.4,0.4,0.4,0.6c-0.1,1.1-0.2,2.2,1.1,2.3    c0.2,0,0.4-0.3,0.6-0.3c1.3,0.2,3,1.2,3.8-0.1c0.7-1.1-1.2-1.1-1.8-1.9c2.1-1.8,2.5-4.5,1.8-7.1c-0.1-0.4-0.1-0.8,0.1-1.1    c0.4-0.5,1.1-0.5,1.2-1.2c0.1-0.7-1-1.1-0.6-1.7c0.2-0.3,0.9-0.1,1.3-0.4c1.1-0.6,0.4-1.7,2.4-1.9c0.3,0,1-1.1,1.3-1    c0.6,0.2,1.3-0.2,1.6,0.3l0.4-1c-2.3-1.8-3.4,0.8-4.6,0.6c-1.6-0.3-3.4,0.7-4.1-0.7c-0.2-0.5,0.6-0.3,0.9-0.6    c0.2-0.2,0.5-0.6,0.5-1c0.2-1.7-1.1-1.5,0-2.6c0.9-0.9-0.2-2.3-1.9-2.7c-0.6-0.1-0.9,0.4-1.4,0.4c-0.3,0.1-0.6-0.2-0.9-0.1    c-2.3,0.6-2.1,3.2-2.2,5c0,0.2,0.7,0.3,1,0.5L14.1,31.6"
   id="path26"
   style="stroke:#000000;stroke-opacity:0.21374601;fill:#3d3d3d;fill-opacity:1" />
		<path
   class="st0"
   d="M14.3,29.2c-1.1,2-3.4,2.6-5.4,3.2c-0.4,0.1-1.4-0.3-1.2-0.9c0.4-0.9,1.8-0.5,2-1.7c0.1-0.6-0.3-1.1-0.4-1.7    c-0.1-0.6,0.5-1.1,0.2-1.7c-0.4-1.1-1.7-1.4-2.7-1.1c-0.6,0.2-1.1,0.4-1.6,0.8c-0.9,0.7-1.1,1.7-1.7,2.6c-0.4,0.5,0.2,1.1,0.4,1.7    c0.2,0.5,1.2,0.2,1.1,0.9c0,0.1-0.3,0.2-0.3,0.4c0.3,2.5-2.6,3.7-4.2,5c0.1,2.3,0.4,4.7,2.2,6.3c-0.2,1.4-1,3.2-0.1,4.2    c1.1,1.2,3.2,1,4.7,0.1C7.7,47,7,46.5,6.7,46.1c-0.9-1.1,0.2-2.5-0.1-3.9c-0.2-0.7-0.6-1.4-0.7-2c0-0.6,0.9-0.4,1.3-0.7    c1.1-1-0.1-2.6,0.3-3.9c0.9,0.8,2,0.6,2.9,0c0.8-0.6,1.5-1.3,1.3-2.4c1.1-0.1,1.6-1.1,2.4-1.6L14.3,29.2"
   id="path27"
   style="stroke:#000000;stroke-opacity:0.21374601;fill:#3d3d3d;fill-opacity:1" />
	</g>
</g>
<linearGradient
   id="SVGID_1_"
   gradientUnits="userSpaceOnUse"
   x1="5.0498"
   y1="15.8977"
   x2="145.6741"
   y2="15.8977">
	<stop
   offset="0"
   style="stop-color:#FFFFFF;stop-opacity:0"
   id="stop28" />
	<stop
   offset="0.5"
   style="stop-color:#FFFFFF"
   id="stop29" />
	<stop
   offset="1"
   style="stop-color:#FFFFFF;stop-opacity:0"
   id="stop30" />
</linearGradient>
<rect
   x="5"
   y="15.5"
   class="st1"
   width="140.6"
   height="0.7"
   id="rect30"
   style="stroke:#000000;stroke-opacity:0.21374601;fill:#3d3d3d;fill-opacity:1" />
</svg>
