<?xml version="1.0" encoding="UTF-8"?>
<svg id="Layer_1" data-name="Layer 1" xmlns="http://www.w3.org/2000/svg" viewBox="0 0 366.633 136.913">
  <defs>
    <style>
      .cls-1 {
        fill: #45ad3d;
      }

      .cls-2 {
        fill: #fff;
      }

      .cls-3 {
        fill: #88081c;
      }

      .cls-4 {
        fill: #34822e;
      }

      .cls-5 {
        fill: #00aeeb;
      }

      .cls-6 {
        fill: #bf1b00;
      }

      .cls-7 {
        fill: #de3536;
      }

      .cls-8 {
        fill: #ff2400;
      }
    </style>
  </defs>
  <g id="mark">
    <g>
      <path class="cls-8" d="M320.565,19.184c-4.172-.41-8.412-.821-12.481.205-5.197,1.334-9.608,5.061-12.549,9.574s-4.616,9.745-5.676,15.011c-2.428,11.831-3.693,24.004-1.573,35.869,1.915,10.839,5.745,21.884,12.857,30.33,2.599,3.077,5.437,6.052,8.993,7.933,3.248,1.71,6.941,2.428,10.6,2.872,5.574.65,11.181.718,16.755.137.889-.103,2.086-.752,1.607-1.539-.171-.239-.445-.376-.752-.479-2.804-1.026-5.676-1.915-8.583-2.701-1.778-3.556-5.437-5.163-8.685-7.454,1.539-18.465,6.941-36.69,16.003-52.829,2.154-3.83,2.599-8.617,2.872-13.028s-.992-8.925-2.77-12.925c-1.402-3.18-4.137-5.368-7.112-7.146-2.975-1.778-6.086-3.522-9.54-3.864l.034.034Z"/>
      <path d="M320.565,19.184c-5.676-.581-11.352-1.06-16.516,1.812-2.667,1.436-5.026,3.488-6.907,5.847-4.411,5.437-6.36,12.344-7.591,19.148-2.257,11.899-3.248,24.243-.684,36.177,1.402,6.77,3.522,13.438,6.805,19.559.205.342.752,1.368.957,1.71.239.41.752,1.231,1.026,1.675.205.308.855,1.334,1.094,1.607.445.615,1.06,1.505,1.539,2.086.274.342.718.923,1.026,1.265,3.351,4.035,7.317,7.865,12.481,9.335,4.958,1.47,10.224,1.812,15.387,1.881,2.599,0,5.197-.103,7.796-.342.41-.034.821-.068,1.197-.239.376-.137,1.026-.513.786-.957-.103-.171-.274-.274-.513-.376-.41-.137-.821-.274-1.231-.445-2.462-.855-4.924-1.607-7.454-2.291h-.103l-.034-.137c-1.778-3.522-5.505-5.129-8.617-7.352l-.137-.103v-.137c.376-4.274.923-8.548,1.71-12.788,2.325-12.686,6.463-25.064,12.481-36.519.445-.855,1.06-1.983,1.539-2.838.513-.889,1.06-1.915,1.402-2.872,1.163-2.975,1.573-6.223,1.812-9.403.342-3.214.034-6.428-.855-9.506-.445-1.539-.992-3.043-1.641-4.548-.615-1.47-1.539-2.804-2.667-3.966-1.505-1.539-3.283-2.735-5.129-3.83-2.735-1.641-5.676-3.18-8.89-3.522h0l-.068.068ZM320.565,19.116c3.248.342,6.189,1.881,8.959,3.488,1.846,1.06,3.659,2.291,5.197,3.83,1.128,1.163,2.086,2.496,2.735,4.001.65,1.47,1.231,2.975,1.675,4.548.923,3.112,1.265,6.36.957,9.608-.274,4.001-.821,8.138-2.77,11.728l-.376.718c-8.754,15.968-13.951,33.852-15.524,51.974l-.103-.239c2.325,1.675,5.026,3.009,7.044,5.129.684.718,1.265,1.539,1.71,2.428l-.171-.137c2.53.684,4.992,1.47,7.454,2.325.41.137.821.274,1.231.445.274.103.615.274.752.581,0,.068.068.137.068.205v.103c.068.684-.547,1.094-1.094,1.299-.41.171-.889.205-1.334.239-6.086.547-12.207.41-18.225-.479-3.454-.513-6.907-1.436-9.882-3.317-3.146-1.983-5.71-4.719-8.07-7.591-.376-.479-.855-1.06-1.231-1.539l-.752-1.06c-5.3-7.454-8.377-16.31-10.224-25.235-.684-3.385-1.163-6.873-1.368-10.326-.479-7.83.342-15.661,1.675-23.354,1.231-7.01,2.838-14.225,7.01-20.14,2.223-3.214,5.197-5.95,8.719-7.694,4.992-2.53,10.6-2.086,15.968-1.539h-.034Z"/>
    </g>
    <g>
      <path class="cls-8" d="M339.337,63.944c-.103-2.701,2.052-4.89,4.035-6.736.581-.547,1.197-1.094,1.949-1.334,1.299-.376,2.667.239,3.864.855.786.41,1.607.821,2.086,1.573,1.026,1.573.171,3.659-.752,5.3-.992,1.778-1.983,3.556-3.317,5.095-4.479,5.197-12.207,6.77-18.841,5.061.615-2.565,1.402-6.736,3.18-8.788.821-.957,1.846-.855,3.112-.992.41-.034,4.719-.274,4.719-.068l-.034.034Z"/>
      <path d="M339.337,63.944c-.068-2.667,1.915-4.787,3.727-6.531.376-.342.752-.718,1.163-1.026,1.402-1.128,2.975-.718,4.445,0,.923.479,1.915.889,2.599,1.71,1.026,1.334.581,3.146-.068,4.548-.445.957-.957,1.846-1.47,2.735-.855,1.47-1.778,2.872-2.941,4.103-3.18,3.317-7.762,5.026-12.31,5.197-2.188.103-4.343-.137-6.463-.718l.068-.274c.342-1.402.65-2.838,1.094-4.24.445-1.47.957-2.906,1.846-4.172.957-1.368,1.881-1.299,3.385-1.402,1.265-.068,2.565-.103,3.83-.103.342,0,.718,0,1.06.103l.034.034h-.068l.068.034ZM339.337,63.944c-.684-.103-1.436,0-2.154,0-.923.068-1.812.103-2.735.205-1.026.103-2.223.103-2.872,1.026l-.171.205-.068.103c-1.197,1.846-1.744,4.069-2.257,6.189-.171.718-.308,1.436-.479,2.12l-.205-.308c1.983.479,4.001.684,6.052.615,4.411-.171,8.925-1.744,12.036-4.958,1.163-1.197,2.086-2.565,2.941-4.001.513-.889,1.026-1.778,1.47-2.701.923-1.949,1.163-4.001-.992-5.197-.889-.513-1.778-.992-2.77-1.265-.992-.308-2.017-.137-2.838.513-.821.615-1.539,1.368-2.257,2.086-1.402,1.436-2.735,3.248-2.667,5.334h-.068l.034.034Z"/>
    </g>
    <g>
      <path class="cls-2" d="M344.877,52.968c-.547-1.539-.889-3.146-.992-4.753,0-.445-.034-.923-.239-1.368-.239-.547-.752-.923-1.163-1.334-.65-.65-1.128-1.505-1.094-2.428s.581-1.846,1.47-2.086c1.231-.342,2.428.65,3.317,1.607,1.06,1.128,2.154,2.257,3.214,3.385,1.47-3.112,1.778-6.736,3.59-9.643.308-.479.684-.957,1.231-1.128.581-.137,1.231.171,1.607.65s.513,1.094.581,1.71c.171,2.154-.684,4.24-1.539,6.223.684-1.778,1.744-3.419,3.077-4.753.41-.41.821-.786,1.368-1.026s1.128-.274,1.641,0c.684.342,1.026,1.163.992,1.915s-.342,1.47-.65,2.188c-.718,1.675-1.436,3.317-2.154,4.992.786-.821,1.505-1.744,2.428-2.394s2.017-1.163,3.18-1.197c.274,0,.547,0,.821.103.274.137.513.376.65.65.41.752.274,1.71-.171,2.462s-1.128,1.265-1.846,1.744c-1.06.718-2.223,1.334-3.419,1.812,1.094-.103,2.359-.068,3.419.103.923.137,1.983.581,2.12,1.505.068.547-.239,1.06-.65,1.436-1.505,1.334-3.932.889-5.676,1.915-.923.547-1.607,1.47-2.394,2.188s-1.915,1.334-2.941,1.026c-.957-1.539-2.086-3.009-3.556-4.035-.65-.445-1.402-.786-2.12-1.06-1.265-.479-2.599-.855-3.932-.684-.103,0-.205.034-.239.103s.034.308.103.239l-.034-.068Z"/>
      <path d="M344.842,52.968c-.65-1.71-.923-3.556-1.06-5.368-.034-.445-.205-.889-.547-1.197-.308-.342-.684-.615-.992-.957-.615-.684-1.06-1.607-.957-2.565.068-.479.239-.923.547-1.299.615-.786,1.744-.889,2.599-.41.821.41,1.47,1.128,2.12,1.778.581.615,2.257,2.325,2.872,2.975h-.171c1.163-2.496,1.573-5.266,2.633-7.83.274-.65.581-1.265.957-1.881.274-.41.581-.821,1.026-1.026.718-.342,1.573,0,2.017.615.581.786.65,1.812.615,2.77-.103,1.881-.821,3.625-1.573,5.334l-.342-.137c.581-1.505,1.402-2.906,2.462-4.137.547-.615,1.094-1.231,1.812-1.641.752-.41,1.812-.513,2.462.137,1.334,1.368.445,3.248-.205,4.685l-1.881,4.377-.376-.274c.992-1.094,1.983-2.291,3.317-2.975.923-.513,2.359-.992,3.385-.581.821.376,1.128,1.299,1.06,2.154-.103,1.197-.992,2.188-1.915,2.838-1.197.889-2.53,1.573-3.898,2.154l-.137-.513c.855-.103,1.744-.068,2.599,0,.889.103,1.812.205,2.565.752.923.65.855,1.846.068,2.599-.65.65-1.539.957-2.394,1.163-1.744.342-3.283.376-4.548,1.744-.581.581-1.128,1.265-1.881,1.778-.718.513-1.675.855-2.565.581h-.068v-.068c-1.06-1.744-2.359-3.419-4.137-4.411-1.368-.718-2.838-1.299-4.377-1.402-.376,0-.786-.034-1.128.068-.103.034-.068.171,0,.239h0l.034-.068ZM344.911,52.968h-.137c-.068-.103-.068-.239.034-.308s.274-.068.376-.103c.786-.103,1.573,0,2.325.205,1.026.274,1.983.615,2.906,1.094,1.881.992,3.214,2.701,4.343,4.445l-.103-.068c.786.239,1.607-.103,2.223-.547,1.026-.752,1.71-1.915,2.804-2.599,1.47-.923,3.351-.752,4.89-1.436,1.778-.821,2.017-2.462-.137-2.941-1.197-.239-2.496-.274-3.727-.171l-1.915.205c1.881-.752,3.966-1.573,5.574-2.804.855-.615,1.607-1.402,1.71-2.462.068-.615-.171-1.334-.718-1.607-.239-.103-.615-.103-.957-.103-1.402.137-2.701.923-3.693,1.881-.786.786-1.675,1.778-2.428,2.599.376-.821,2.052-4.719,2.462-5.642.308-.718.684-1.436.821-2.188.342-1.641-.855-3.009-2.496-2.12-.684.376-1.197.957-1.71,1.539-1.026,1.197-1.881,2.53-2.428,4.001l-.342-.137c.752-1.778,1.539-3.59,1.573-5.574,0-.752-.068-1.607-.547-2.223-.376-.479-1.06-.821-1.641-.513-1.231.615-2.359,4.001-2.77,5.334-.547,1.812-1.026,3.659-1.846,5.403l-.103-.103c-.615-.65-2.257-2.359-2.838-3.009-.889-.923-1.915-2.154-3.351-2.017-.889.103-1.539.957-1.641,1.846-.103.889.308,1.778.923,2.462.308.342.65.615.957.992.684.718.547,1.744.65,2.633.137,1.368.445,2.735.889,4.035h.068Z"/>
    </g>
    <g>
      <path class="cls-8" d="M285.414,66.782c.068,1.026.41,2.017.479,3.043.274,3.214-2.052,6.121-4.65,8.07.718.342,1.231.992,1.812,1.505,1.402,1.231,3.419,1.675,5.197,1.197.513-.137,1.06-.376,1.436-.786.479-.513.684-1.231.752-1.915.103-1.505-.376-2.975-.752-4.411-.889-3.214-1.299-6.531-1.368-9.882,0-1.881-.684-2.052-1.812-.513-.752,1.06-1.163,2.394-1.094,3.693Z"/>
      <path d="M285.448,66.782c.068,1.06.41,2.086.479,3.146.171,2.154-.855,4.24-2.257,5.847-.684.821-1.505,1.539-2.359,2.188v-.239c.957.445,1.539,1.402,2.428,1.949,1.436.923,3.283,1.128,4.855.547,2.804-1.094,1.197-5.129.65-7.283-.718-2.735-1.094-5.539-1.128-8.343,0-.684.068-1.402-.103-2.052-.205-.889-.992,0-1.299.376-.889,1.06-1.368,2.462-1.299,3.83h0l.034.034ZM285.38,66.782c-.103-1.402.376-2.838,1.197-3.966.41-.615,1.334-1.505,1.744-.342.205.718.171,1.402.239,2.12.034.684.103,1.402.171,2.086.205,2.086.547,4.137,1.06,6.155.342,1.368.821,2.701.889,4.137.103,1.505-.308,3.112-1.915,3.659-1.71.615-3.693.376-5.197-.615-.889-.547-1.505-1.539-2.394-1.983l-.205-.103.205-.137c2.394-1.778,4.65-4.308,4.719-7.42,0-1.197-.41-2.359-.479-3.556h0l-.034-.034Z"/>
    </g>
    <g>
      <g>
        <path class="cls-2" d="M278.267,80.425c.65.581,1.573.821,2.428.581.41-.103.752-.308,1.128-.513,2.633-1.607,4.411-4.479,4.685-7.557.103-.992,0-2.052-.581-2.872-.547-.752-1.402-1.197-2.291-1.47,0,2.291-.342,4.719-1.812,6.463-.615.718-1.368,1.299-2.086,1.846-1.299.992-3.351,1.744-1.436,3.488l-.034.034Z"/>
        <path d="M278.267,80.391c.581.513,1.402.752,2.154.65.752-.137,1.436-.615,2.052-1.06,1.812-1.436,3.146-3.488,3.659-5.779.239-1.094.342-2.291-.034-3.385-.41-1.094-1.436-1.641-2.53-1.983l.308-.239c.034,2.428-.342,5.095-2.12,6.907-.65.684-1.402,1.163-2.154,1.675-1.334.855-3.043,1.573-1.299,3.18h0l-.034.034ZM278.233,80.425c-1.368-1.163-.855-2.052.445-2.941.957-.684,1.915-1.436,2.701-2.291,1.675-1.846,2.017-4.479,2.017-6.907,2.53.752,3.556,2.154,3.248,4.787-.308,2.77-1.812,5.368-4.103,6.975-.65.445-1.334.923-2.12,1.026-.786.103-1.607-.137-2.188-.65h0Z"/>
      </g>
      <g>
        <path class="cls-2" d="M270.54,75.501c1.778,1.949,4.616,2.941,7.215,2.428s4.89-2.496,5.676-5.026c.581-1.812.41-3.761.239-5.642-.171-1.778.65-3.522,1.675-4.992.137-.171.274-.376.342-.581.171-.547-.171-1.128-.615-1.436s-1.026-.376-1.607-.41c-1.231-.034-2.599.274-3.317,1.265-.479.65-.581,1.47-.718,2.291-.103.615-.171,1.231-.274,1.846-1.846-.513-3.283-1.846-4.65-3.214s-2.906-2.701-4.821-2.872c-.205,0-.376,0-.547.068-.205.137-.308.376-.376.581-.239.923-.205,1.915.137,2.804-.615-.513-1.641-.274-2.12.376s-.513,1.539-.308,2.291.718,1.436,1.163,2.086c-1.026-.274-2.359-.41-2.941.479-.41.684-.137,1.573.342,2.223s1.128,1.128,1.505,1.812c-.308.068-.65.103-.889.274-.376.274-.513.786-.479,1.265.068,1.06.957,1.983,1.983,2.291s2.359.171,3.317-.239l.068.034Z"/>
        <path d="M270.54,75.467c3.693,3.898,10.019,3.214,12.446-1.675.957-2.017.752-4.343.547-6.531-.068-.923.103-1.881.41-2.735.342-.957.923-1.846,1.47-2.667.274-.479,0-1.06-.41-1.402-.308-.205-.65-.342-1.06-.376-1.47-.171-3.351.171-3.966,1.675-.308.718-.342,1.539-.479,2.325,0,.205-.171,1.299-.205,1.436-1.368-.342-2.599-1.128-3.659-2.052-.992-.855-1.846-1.812-2.872-2.599-.855-.684-1.846-1.231-2.906-1.368-.171,0-.41-.068-.581,0-.137.068-.205.205-.274.376-.239.889-.205,1.846.103,2.701l.376.992-.821-.684c-.342-.308-.957-.274-1.368,0-.957.581-.889,1.983-.41,2.906.308.684.855,1.402,1.299,2.052l-.65-.171c-.615-.137-1.231-.274-1.846-.171-1.026.171-1.231,1.163-.821,2.017.41.889,1.265,1.436,1.778,2.325l.137.205c-.239.034-.547.068-.786.137-.513.137-.752.65-.752,1.163,0,.718.41,1.368.957,1.812,1.197.923,2.872.821,4.24.308h.103ZM270.54,75.536c-1.505.684-3.59.752-4.787-.581-.65-.718-.992-1.949-.274-2.77.274-.308.718-.41,1.094-.445l-.137.274c-.308-.547-.821-.957-1.265-1.47-.581-.615-1.06-1.573-.752-2.462.342-.957,1.436-1.197,2.325-1.094.342,0,.684.103,1.026.171l-.274.376c-.718-.992-1.505-2.154-1.368-3.454.068-1.265,1.231-2.291,2.496-1.915.171.068.342.137.479.274l-.445.308c-.376-.957-.41-2.052-.103-3.043.205-.718.718-.889,1.436-.752,2.565.376,4.206,2.565,6.018,4.172.957.855,2.017,1.573,3.214,1.949l-.274.171c.103-.718.239-1.71.342-2.428.103-.615.274-1.265.65-1.778.65-.889,1.744-1.265,2.804-1.334.855-.034,1.744,0,2.462.513.342.274.615.684.65,1.163.034.445-.274.855-.513,1.197-.889,1.299-1.607,2.838-1.573,4.411.034.786.137,1.641.171,2.428.068,1.641-.137,3.351-.923,4.787-2.633,4.719-8.89,5.266-12.515,1.368h0l.034-.034Z"/>
      </g>
    </g>
    <g>
      <path class="cls-4" d="M316.769,20.86c-1.915,2.325-4.958,3.522-7.967,3.761s-6.018-.376-8.925-1.163c-1.231,1.402-2.325,2.906-3.317,4.479-1.539-.445-3.18-.479-4.719-.103.274-2.838,2.188-5.471,4.821-6.599-2.53-1.675-3.966-4.445-3.625-7.454,2.701,2.188,6.326,3.214,9.779,2.77,2.53-.308,4.924-1.368,7.42-1.778s5.403-.068,7.044,1.915c1.778-1.299,3.077-3.18,4.343-4.992,1.128-1.607,2.223-3.18,3.351-4.787,1.265-1.812,2.53-3.625,4.308-4.958s4.103-2.086,6.189-1.402c1.846.581,3.317,2.291,3.59,4.206s-.615,3.966-2.223,5.061c-.274.171-.581.342-.889.342-.684-.034-1.026-.786-1.436-1.299-1.06-1.265-3.18-1.265-4.548-.308s-2.086,2.633-2.359,4.274c-.445,2.667.068,5.471,1.47,7.796,1.881-.615,4.206.034,5.608,1.436,1.983,1.983,2.154,5.095,3.488,7.557,1.71,3.248,6.018,5.163,9.301,3.556-1.299,1.539-2.701,3.077-4.514,3.966s-4.172.923-5.71-.342c-1.949-1.641-1.949-4.616-3.351-6.77.137.445-.274.855-.65,1.094-2.565,1.675-5.916,1.334-8.89.615-2.565-.615-5.3-1.573-6.736-3.795-1.368-2.12-1.026-4.582-.855-7.112v.034Z"/>
      <path d="M316.769,20.894c-.445.581-1.06,1.128-1.607,1.539-3.077,2.291-7.146,2.633-10.874,2.052-1.505-.239-2.975-.581-4.411-.957h.068c-1.231,1.368-2.325,2.872-3.317,4.479h-.068c-1.505-.445-3.146-.479-4.685-.103h-.103v-.103c.274-2.872,2.188-5.539,4.855-6.668v.171c-1.231-.821-2.291-1.915-2.941-3.248s-.923-2.838-.752-4.308v-.239c.889.718,1.881,1.334,2.906,1.778,2.906,1.334,6.257,1.505,9.301.615,2.086-.547,4.103-1.299,6.257-1.436,2.154-.137,4.548.376,5.984,2.086h-.239c1.949-1.47,3.283-3.556,4.65-5.539l2.086-3.009c1.402-1.983,2.701-4.103,4.548-5.745s4.445-2.735,6.907-2.052c1.231.342,2.291,1.163,3.009,2.188,1.539,2.12,1.128,5.163-.718,6.975-.752.752-1.778,1.436-2.667.41-.376-.41-.581-.855-.992-1.197-.957-.752-2.359-.752-3.419-.239-.786.376-1.402,1.06-1.812,1.778-1.675,3.146-1.231,7.181.547,10.19l-.308-.103c2.428-.752,5.197.308,6.599,2.359.445.684.821,1.436,1.094,2.188.752,1.949,1.128,4.103,2.462,5.71,1.881,2.359,5.368,3.693,8.206,2.325l1.094-.513-.786.923c-1.06,1.265-2.188,2.53-3.59,3.419-1.812,1.231-4.377,1.71-6.36.581-1.812-1.026-2.359-3.214-2.975-5.026-.274-.786-.547-1.539-.992-2.188l.342-.171c.342,1.197-1.949,1.983-2.838,2.223-1.983.513-4.069.274-6.052-.137-2.086-.445-4.24-1.06-5.984-2.325-3.077-2.291-2.804-5.437-2.428-8.856h0v.171ZM316.769,20.86c-.103,2.701-.581,5.437,1.368,7.659,1.402,1.641,3.522,2.394,5.539,2.941,2.53.615,5.3,1.128,7.83.308.479-.171.992-.376,1.402-.65.308-.171.615-.41.752-.752v-.274l-.41-1.299.752,1.128c.445.718.786,1.505,1.06,2.257.547,1.505.923,3.146,2.12,4.274,1.163,1.094,2.906,1.299,4.411.889,2.394-.615,4.069-2.496,5.642-4.343l.308.376c-3.556,1.744-8.035-.41-9.745-3.83-.957-1.881-1.299-4.035-2.291-5.915-.239-.445-.547-.889-.889-1.231-1.334-1.47-3.59-2.154-5.505-1.573l-.205.068-.103-.171c-1.265-2.154-1.846-4.685-1.607-7.181.205-2.12,1.06-4.548,3.112-5.539,1.436-.718,3.454-.547,4.445.821.342.41.615,1.026,1.163,1.06.342,0,.752-.274,1.06-.513.547-.445,1.026-1.026,1.334-1.71,1.402-2.77-.137-6.155-3.077-7.01-2.325-.65-4.787.376-6.531,1.949-1.812,1.607-3.112,3.693-4.514,5.642l-2.086,2.975c-1.402,1.983-2.77,4.103-4.753,5.574l-.137.103c-.684-.855-1.641-1.47-2.701-1.778-3.112-.957-6.326.274-9.335,1.094-4.206,1.231-8.822.41-12.241-2.359l.205-.068c-.068.718-.068,1.436.068,2.154.376,2.188,1.778,4.137,3.659,5.334-1.368.547-2.565,1.505-3.454,2.667-.821,1.128-1.368,2.496-1.505,3.898l-.103-.103c1.573-.376,3.214-.342,4.753.103h-.103c.992-1.539,2.12-3.043,3.351-4.445h.034c2.906.786,5.881,1.436,8.89,1.197,3.043-.239,5.95-1.436,7.967-3.761h0l.068.034Z"/>
    </g>
    <path class="cls-6" d="M336.807,40.145c1.163,12.378-4.035,24.346-9.13,35.664-2.941,6.531-5.539,13.267-7.557,20.14-1.265,4.206-2.496,8.685-1.436,12.959.855,3.385,3.18,6.36,6.223,8.104,1.573.923,3.317,1.505,5.095,1.915,2.257.547,4.753.821,6.873-.137-4.582,2.599-10.258,2.804-15.353,1.539s-9.779-3.966-14.156-6.907c-4.035-2.701-8.07-5.813-10.019-10.224,2.804,2.086,6.428,2.77,9.95,3.077,2.77.239,6.086.068,7.659-2.223.684-.957.923-2.154,1.128-3.317,1.334-7.044,2.667-14.122,4.035-21.166,1.368-7.044,4.616-13.506,8.548-19.49s8.275-12.754,8.206-19.935h-.068Z"/>
    <path class="cls-6" d="M338.072,70.783c1.231-.342,2.462-.786,3.522-1.47,1.846-1.197,3.112-3.077,4.855-4.411.855-.65,1.812-1.197,2.565-1.949s1.368-1.812,1.197-2.872c.308,1.197.615,2.496.205,3.659-.205.513-.547.992-.855,1.436-1.436,1.949-2.906,3.898-4.855,5.334-3.522,2.599-8.104,3.146-12.446,3.317-.684,0-1.436,0-1.983-.376-2.052-1.505,1.026-1.812,1.846-1.812,2.017,0,4.035-.308,5.984-.855h-.034Z"/>
    <path class="cls-6" d="M286.679,79.912c.615.137,1.265.103,1.881.034.068-.581,0-1.163-.205-1.71-.684.171-1.402.308-2.12.445-.547.103-1.505.034-1.915.308.513.41,1.675.786,2.359.923Z"/>
    <g>
      <path class="cls-2" d="M343.851,54.643c-.103-.923.171-1.915.889-2.496.239-.205.547-.342.855-.445,1.231-.41,2.565-.274,3.761.205s2.223,1.265,3.214,2.086c1.539,1.334,2.975,3.043,3.077,5.061,0,.239,0,.479-.103.684-.103.239-.308.41-.513.581-1.094.923-2.394,1.915-3.761,1.573.513-2.017-.718-4.206-2.496-5.232-.376-.205-.752-.376-1.163-.479-1.128-.205-1.949.479-2.906.821-.445-.684-.752-1.607-.821-2.428l-.034.068Z"/>
      <path d="M343.817,54.643c-.137-1.675.718-2.838,2.394-3.146,2.496-.513,4.855.957,6.634,2.565,1.47,1.299,2.872,2.906,3.009,4.958.068.581-.103,1.094-.581,1.47-.376.308-.752.65-1.163.923-.821.581-1.881,1.06-2.906.821l-.274-.068.068-.274c.41-1.641-.41-3.385-1.641-4.445-1.026-.889-2.086-1.402-3.419-.786-.41.171-.855.376-1.299.513-.479-.752-.752-1.641-.821-2.53h0ZM343.885,54.643c.103.855.376,1.675.855,2.394h-.103c.821-.342,1.573-.957,2.496-.992.957-.034,1.812.445,2.53,1.026,1.436,1.163,2.325,3.112,1.846,4.958l-.205-.342c.889.205,1.778-.205,2.53-.684.376-.274.752-.547,1.128-.855s.513-.615.445-1.094c-.103-1.915-1.436-3.488-2.804-4.753-1.71-1.573-3.966-3.077-6.394-2.667-1.675.239-2.496,1.368-2.359,3.043h0l.034-.034Z"/>
    </g>
    <g>
      <ellipse class="cls-2" cx="300.318" cy="40.841" rx="6.805" ry="4.924" transform="translate(208.403 329.65) rotate(-80.09)"/>
      <path d="M305.212,41.684c-.513,2.906-2.701,6.428-6.052,5.984-3.351-.65-4.411-4.753-3.864-7.694.445-3.009,2.838-6.599,6.292-6.052,3.385.718,4.24,4.855,3.659,7.796h0l-.034-.034ZM305.144,41.684c.239-1.505.103-3.112-.513-4.479-.581-1.334-1.71-2.53-3.18-2.77-3.112-.41-5.3,2.872-5.745,5.608-.547,2.77.342,6.702,3.488,7.352,1.505.308,3.009-.513,4.035-1.607,1.026-1.128,1.675-2.599,1.949-4.103h-.034Z"/>
    </g>
    <g>
      <ellipse class="cls-2" cx="318.449" cy="45.348" rx="6.805" ry="4.924" transform="translate(218.973 351.242) rotate(-80.09)"/>
      <path d="M323.3,46.232c-.513,2.906-2.701,6.428-6.052,5.984-3.351-.65-4.411-4.753-3.864-7.694.445-3.009,2.838-6.599,6.292-6.052,3.385.718,4.24,4.855,3.659,7.796h0l-.034-.034ZM323.232,46.232c.239-1.505.103-3.112-.513-4.479-.581-1.334-1.71-2.53-3.18-2.77-3.112-.41-5.3,2.872-5.745,5.608-.547,2.77.342,6.702,3.488,7.352,1.505.308,3.009-.513,4.035-1.607,1.026-1.128,1.675-2.599,1.949-4.103h-.034Z"/>
    </g>
    <g>
      <ellipse class="cls-1" cx="301.011" cy="41.351" rx="4.924" ry="3.556" transform="translate(208.474 330.754) rotate(-80.09)"/>
      <path d="M304.562,41.957c-.205,1.094-.65,2.188-1.368,3.043-1.163,1.436-3.146,1.915-4.582.547-2.428-2.394-1.573-7.591,1.505-9.061.821-.376,1.846-.376,2.667.068,1.812,1.094,2.12,3.488,1.778,5.403h0ZM304.494,41.957c.171-1.094.068-2.257-.41-3.248-.65-1.47-2.188-2.462-3.761-1.744-2.428,1.163-3.283,4.548-2.394,6.975.376.992,1.163,1.881,2.223,2.086,2.325.376,4.001-2.052,4.308-4.103h0l.034.034Z"/>
    </g>
    <g>
      <ellipse class="cls-1" cx="319.39" cy="45.774" rx="4.924" ry="3.556" transform="translate(219.333 352.521) rotate(-80.09)"/>
      <path d="M322.924,46.403c-.205,1.094-.65,2.188-1.368,3.043-1.163,1.436-3.146,1.915-4.582.547-2.428-2.394-1.573-7.591,1.505-9.061.821-.376,1.846-.376,2.667.068,1.812,1.094,2.12,3.488,1.778,5.403h0ZM322.856,46.403c.171-1.094.068-2.257-.41-3.248-.65-1.47-2.188-2.462-3.761-1.744-2.428,1.163-3.283,4.548-2.394,6.975.376.992,1.163,1.881,2.223,2.086,2.325.376,4.001-2.052,4.308-4.103h0l.034.034Z"/>
    </g>
    <ellipse cx="301.947" cy="41.988" rx="3.009" ry="2.188" transform="translate(208.621 332.204) rotate(-80.09)"/>
    <ellipse cx="320.283" cy="46.692" rx="3.009" ry="2.188" transform="translate(219.168 354.161) rotate(-80.09)"/>
    <circle class="cls-2" cx="302.545" cy="43.086" r=".615"/>
    <circle class="cls-2" cx="320.907" cy="47.668" r=".615"/>
    <g>
      <path class="cls-3" d="M296.151,66.816c-.581,2.667-.513,5.847,1.573,7.591,1.094.923,2.565,1.299,4.001,1.402,3.009.239,6.223-.615,8.377-2.77,1.436-1.436,2.291-3.317,3.043-5.197,1.231-3.077,2.188-6.257,2.941-9.472-6.292,1.881-12.378,1.334-18.635-.274.684,3.009-.821,5.813-1.299,8.719Z"/>
      <path d="M296.185,66.816c-.479,2.223-.581,4.821.821,6.77,1.436,1.949,4.069,2.257,6.326,2.154,2.291-.137,4.616-.923,6.326-2.496,1.744-1.573,2.667-3.795,3.488-5.95,1.128-2.906,2.017-5.915,2.667-8.959l.308.274c-4.548,1.402-9.472,1.539-14.122.684-1.573-.274-3.112-.65-4.616-1.06l.205-.205c.65,3.009-.923,5.847-1.436,8.754h0l.034.034ZM296.116,66.816c.479-2.872,1.915-5.745,1.163-8.685l-.068-.239.239.068c6.052,1.436,12.481,1.983,18.533.205l.41-.103-.103.41c-.718,3.077-1.641,6.052-2.804,8.993-.581,1.47-1.197,2.906-2.086,4.24s-2.086,2.428-3.522,3.146c-2.633,1.334-6.497,1.641-9.198.376-3.077-1.47-3.283-5.403-2.599-8.343h0l.034-.068Z"/>
    </g>
    <path d="M299.604,58.541c-.855-.034-1.71-.308-2.462-.718-.615-.274-1.128-.821-1.368-1.47h.034c.41.171.786.445,1.163.718.479.41.992.752,1.573,1.026.342.171.684.274,1.026.376v.068h.034Z"/>
    <path d="M293.449,56.455c.068-.684.513-1.299,1.094-1.675.445-.342,1.094-.41,1.573-.103v.068c-.274.103-.513.171-.786.274-.171.068-.376.137-.547.171-.581.239-1.026.718-1.265,1.265,0,0-.068,0-.068,0Z"/>
    <path d="M315.812,56.524c.786,0,1.505.513,1.949,1.128.205.274.376.65.376.992,0,.274-.068.547-.205.786h-.068c-.137-.547-.342-1.026-.513-1.539-.103-.205-.239-.41-.376-.581l-.171-.171-.171-.137c-.239-.205-.513-.342-.855-.445v-.068h0l.034.034Z"/>
    <g>
      <path class="cls-2" d="M299.228,64.935c.855.034,1.812-.376,2.12-1.163.41.889,1.368,1.539,2.359,1.539s1.949-.615,2.359-1.505c.547.957,1.744,1.539,2.838,1.334s2.052-1.128,2.257-2.223c.65.342,1.368.547,2.086.65.376.068.786.068,1.128-.137.513-.308.684-.957.786-1.539.171-1.06.376-2.154.547-3.214-6.121.855-12.481,1.299-18.328-.65.752.205.684,1.334.41,2.052-.786,2.291-2.017,4.616,1.436,4.821v.034Z"/>
      <path d="M299.228,64.935c.855.034,1.846-.376,2.12-1.231.376.923,1.368,1.573,2.359,1.539,1.026,0,1.983-.718,2.359-1.641.274.513.718.957,1.265,1.197,1.607.786,3.522-.342,3.727-2.12.65.342,1.368.615,2.12.718.342.034.684.068.957,0,.65-.239.752-.992.855-1.607.103-.65.41-2.428.513-3.112l.239.239c-1.539.239-3.077.41-4.616.581-4.616.445-9.403.342-13.814-1.197l.103-.41c.923.274.786,1.47.547,2.188-.752,2.154-2.257,4.685,1.265,4.89h0v-.034ZM299.228,65.004c-1.983-.103-2.77-.923-2.188-2.906.171-.718.445-1.402.65-2.12.103-.342.137-.684.103-1.026-.034-.308-.171-.581-.479-.65l.103-.41c4.411,1.334,9.096,1.47,13.643,1.128,1.641-.137,3.248-.308,4.855-.547,0,0-.41,2.223-.41,2.325l-.171,1.026c-.103.513-.205,1.128-.581,1.539-.41.445-1.094.445-1.607.342-.718-.103-1.402-.342-2.017-.684l.205-.103c-.103.581-.41,1.128-.821,1.539-1.299,1.334-3.59.957-4.479-.65h.171c-.445.923-1.436,1.539-2.428,1.505-.992,0-1.949-.65-2.394-1.573h.034c-.068.205-.205.376-.342.547-.479.479-1.163.684-1.812.65h0l-.034.068Z"/>
    </g>
    <g>
      <path class="cls-7" d="M303.058,72.732c.923-1.026,2.223-1.778,3.625-1.778s2.804.957,3.043,2.325c-1.778,1.573-4.206,2.257-6.565,2.394-1.231.068-2.462,0-3.625-.376-.855-.274-1.675-.786-2.291-1.436-.376-.41-.581-.581-.308-.992.205-.308.821-.547,1.128-.684,1.607-.684,3.59-.513,4.992.547Z"/>
      <path d="M303.058,72.697c.889-1.026,2.188-1.812,3.625-1.846,1.436,0,2.975.992,3.214,2.462-1.026.957-2.291,1.607-3.59,1.983-3.112.889-7.625,1.197-9.677-1.812-.137-.205-.068-.513.068-.718.274-.445.786-.615,1.231-.786,1.675-.684,3.761-.513,5.163.684h0l-.034.034ZM303.058,72.766c-1.47-.957-3.419-1.06-4.958-.308-.308.137-.65.274-.889.513-.068.068-.137.205-.103.274,1.71,2.428,5.163,2.496,7.83,2.052,1.71-.308,3.385-.923,4.719-2.086v.137c-.171-.65-.547-1.231-1.094-1.607-1.812-1.334-4.069-.445-5.471,1.06h0l-.034-.034Z"/>
    </g>
  </g>
  <g id="name">
    <path class="cls-5" d="M18.499,70.27h-7.283c-2.701,7.694-5.505,16.242-8.001,23.867H0c2.53-7.625,5.334-16.174,8.001-23.867H.718l.957-2.77h17.746l-.957,2.77h.034Z"/>
    <path class="cls-5" d="M18.499,88.495c0-2.633,2.633-5.608,2.633-7.386,0-.65-.274-1.06-.992-1.06-3.077,0-5.915,6.634-7.078,11.045h-3.009c1.812-5.403,5.129-15.216,7.283-21.337h2.975c-1.368,3.625-2.599,7.249-3.864,10.908,1.368-2.154,3.248-3.283,5.061-3.283,1.675,0,2.804,1.128,2.804,2.838,0,2.428-2.735,5.881-2.735,7.591,0,.547.308.855.821.855,1.47,0,3.659-2.77,5.471-6.189l.992,1.778c-1.299,2.906-4.308,7.215-7.386,7.215-1.915,0-2.975-1.197-2.975-2.941v-.034Z"/>
    <path class="cls-5" d="M39.254,87.914c-1.436,1.778-4.103,3.522-7.249,3.522-3.419,0-5.847-2.052-5.847-5.368,0-4.514,2.975-8.719,7.215-8.719,2.633,0,3.966,1.983,3.966,3.864,0,3.864-4.411,5.984-8.172,5.129.205,1.573,1.231,2.565,3.488,2.565,1.949,0,4.103-1.71,5.232-3.009,0,0,1.368,2.017,1.368,2.017ZM29.27,84.392c2.428.376,5.232-.992,5.266-3.043,0-.855-.479-1.505-1.368-1.505-1.915,0-3.488,2.086-3.898,4.548Z"/>
    <path class="cls-8" d="M66.78,97.83c5.574,1.744,9.814,6.052,9.814,11.181,0,9.506-10.429,14.943-21.679,14.943-8.446,0-17.439-2.872-20.926-5.197l3.18-5.95c1.573.889,3.317,1.812,5.197,2.565,3.932-12.07,8.138-24.072,12.002-36.177h7.249c-1.675,4.992-3.385,9.95-5.061,14.943,11.489.137,22.431-4.924,22.431-13.814,0-6.634-6.873-10.258-14.498-10.258-5.95,0-12.378,2.052-17.063,4.821l-2.701-5.95c5.129-3.248,12.754-5.368,19.798-5.368,12.173,0,21.747,6.257,21.747,16.003,0,8.925-8.138,16.618-19.49,18.259ZM54.607,99.95c-1.949,5.813-3.864,11.626-5.676,17.37,2.188.513,4.377.752,6.565.752,7.249,0,13.746-3.317,13.746-8.993-.068-5.3-7.112-8.822-14.635-9.13Z"/>
    <path class="cls-8" d="M106.205,101.249c-2.872,6.428-9.506,15.934-16.174,15.934-11.489,0-5.574-15.114.068-30.364h6.736c-4.753,12.686-9.574,24.175-5.061,24.175,3.18,0,8.241-5.813,12.241-13.677,0,0,2.188,3.932,2.188,3.932ZM91.844,78.818c0-3.112,2.565-5.881,5.3-5.881,1.949,0,3.488,1.436,3.488,3.488,0,2.941-2.633,5.881-5.368,5.881-2.12,0-3.385-1.436-3.385-3.488h-.034Z"/>
    <path class="cls-8" d="M93.041,129.63c0-8.548,12.241-12.549,21.884-13.575l2.188-6.497c-1.881,2.428-5.061,3.864-7.865,3.864-4.992,0-8.925-3.556-8.925-9.745,0-9.13,6.565-17.576,14.566-17.576,3.864,0,6.736,1.675,8.138,3.625l.992-2.872h6.497l-11.181,33.988c-3.864,11.626-10.634,16.071-17.37,16.071-5.3,0-8.993-2.804-8.993-7.249l.068-.034ZM113.283,121.013c-5.197.615-13.883,3.488-13.883,7.762,0,1.881,1.436,2.633,3.488,2.633,3.693,0,7.694-3.317,10.429-10.429l-.034.034ZM121.421,94.274c-1.06-1.368-3.385-2.633-5.745-2.633-5.745,0-8.754,5.745-8.754,11.113,0,3.317,1.744,5.129,4.445,5.129,5.061,0,7.865-7.249,10.053-13.575v-.034Z"/>
    <path class="cls-8" d="M190.287,92.94l-2.12,6.257h-4.377c-3.761,13.199-12.823,24.756-24.072,24.756-10.429,0-16.242-6.805-16.242-19.798,0-18.123,12.378-40.622,29.509-40.622,10.258,0,16.447,8.685,13.37,19.935h-7.317c2.257-7.762-1.744-12.994-7.01-12.994-11.865,0-21.303,18.123-21.303,33.441,0,8.241,3.112,13.438,9.574,13.438,7.112,0,13.438-9.13,16.447-18.191h-9.95l2.052-6.257h21.439v.034Z"/>
    <path class="cls-8" d="M213.026,101.249c-2.872,6.428-9.506,15.934-16.174,15.934-11.489,0-5.574-15.114.068-30.364h6.736c-4.753,12.686-9.574,24.175-5.061,24.175,3.18,0,8.241-5.813,12.241-13.677,0,0,2.188,3.932,2.188,3.932ZM198.665,78.818c0-3.112,2.565-5.881,5.3-5.881,1.949,0,3.488,1.436,3.488,3.488,0,2.941-2.633,5.881-5.368,5.881-2.12,0-3.385-1.436-3.385-3.488h-.034Z"/>
    <path class="cls-8" d="M244.347,98.685c-2.12,2.804-7.625,5.574-12.925,4.24-3.556,8.138-9.745,14.361-16.447,14.361-5.368,0-7.557-4.069-7.557-8.617,0-5.881,2.872-15.114,5.505-21.816h6.805c-2.941,7.625-5.813,16.55-5.813,20.995,0,2.12.752,3.009,2.428,3.009,4.308,0,11.763-11.386,11.318-24.004h6.805c.137,3.625-.308,7.386-1.197,10.942,3.248.821,6.873-.239,8.993-3.317l2.12,4.24-.034-.034Z"/>
    <path class="cls-8" d="M266.402,109.387c-3.18,3.932-9.061,7.762-16.003,7.762-7.557,0-12.925-4.514-12.925-11.865,0-9.95,6.565-19.251,15.934-19.251,5.813,0,8.754,4.377,8.754,8.548,0,8.548-9.745,13.199-18.054,11.318.445,3.488,2.701,5.676,7.694,5.676,4.308,0,9.061-3.761,11.557-6.634l3.009,4.445h.034ZM244.347,101.625c5.368.821,11.557-2.188,11.626-6.736.068-1.881-1.06-3.317-3.009-3.317-4.24,0-7.694,4.616-8.617,10.053Z"/>
  </g>
</svg>